<svg width="185" height="59" viewBox="0 0 185 59" fill="none" xmlns="http://www.w3.org/2000/svg">
<path d="M69.976 26L65.16 10.32H65.048C65.0667 10.6933 65.0947 11.2533 65.132 12C65.1693 12.7467 65.2067 13.5493 65.244 14.408C65.2813 15.248 65.3 16.0133 65.3 16.704V26H61.52V6.008H67.288L72.02 21.296H72.104L77.116 6.008H82.884V26H78.936V16.536C78.936 15.9013 78.9453 15.1733 78.964 14.352C79.0013 13.5307 79.0293 12.756 79.048 12.028C79.0853 11.2813 79.1133 10.7213 79.132 10.348H79.02L73.868 26H69.976ZM94.1701 10.404C96.2234 10.404 97.7914 10.852 98.8741 11.748C99.9754 12.6253 100.526 13.9787 100.526 15.808V26H97.6141L96.8021 23.928H96.6901C96.2607 24.4693 95.8127 24.9173 95.3461 25.272C94.8981 25.6267 94.3754 25.8787 93.7781 26.028C93.1994 26.196 92.4807 26.28 91.6221 26.28C90.7261 26.28 89.9141 26.112 89.1861 25.776C88.4767 25.4213 87.9167 24.8893 87.5061 24.18C87.0954 23.452 86.8901 22.5373 86.8901 21.436C86.8901 19.812 87.4594 18.6173 88.5981 17.852C89.7367 17.068 91.4447 16.6387 93.7221 16.564L96.3821 16.48V15.808C96.3821 15.0053 96.1674 14.4173 95.7381 14.044C95.3274 13.6707 94.7487 13.484 94.0021 13.484C93.2554 13.484 92.5274 13.596 91.8181 13.82C91.1087 14.0253 90.3994 14.2867 89.6901 14.604L88.3181 11.776C89.1394 11.3467 90.0447 11.0107 91.0341 10.768C92.0421 10.5253 93.0874 10.404 94.1701 10.404ZM94.7581 18.972C93.4141 19.0093 92.4807 19.252 91.9581 19.7C91.4354 20.148 91.1741 20.736 91.1741 21.464C91.1741 22.0987 91.3607 22.556 91.7341 22.836C92.1074 23.0973 92.5927 23.228 93.1901 23.228C94.0861 23.228 94.8421 22.9667 95.4581 22.444C96.0741 21.9027 96.3821 21.1467 96.3821 20.176V18.916L94.7581 18.972ZM111.312 26.28C109.8 26.28 108.512 26.0093 107.448 25.468C106.384 24.908 105.572 24.0493 105.012 22.892C104.452 21.7347 104.172 20.2507 104.172 18.44C104.172 16.5733 104.49 15.052 105.124 13.876C105.759 12.7 106.636 11.832 107.756 11.272C108.895 10.712 110.202 10.432 111.676 10.432C112.722 10.432 113.627 10.5347 114.392 10.74C115.176 10.9453 115.858 11.188 116.436 11.468L115.204 14.688C114.551 14.4267 113.935 14.212 113.356 14.044C112.796 13.876 112.236 13.792 111.676 13.792C110.948 13.792 110.342 13.9693 109.856 14.324C109.371 14.66 109.007 15.1733 108.764 15.864C108.54 16.536 108.428 17.3853 108.428 18.412C108.428 19.42 108.55 20.26 108.792 20.932C109.054 21.5853 109.427 22.08 109.912 22.416C110.398 22.7333 110.986 22.892 111.676 22.892C112.554 22.892 113.328 22.78 114 22.556C114.672 22.3133 115.326 21.9867 115.96 21.576V25.132C115.326 25.5427 114.654 25.832 113.944 26C113.254 26.1867 112.376 26.28 111.312 26.28ZM132.435 13.848H127.423V26H123.251V13.848H118.239V10.712H132.435V13.848ZM141.582 10.432C143.001 10.432 144.214 10.7027 145.222 11.244C146.249 11.7853 147.042 12.5693 147.602 13.596C148.162 14.6227 148.442 15.8827 148.442 17.376V19.392H138.586C138.624 20.568 138.969 21.492 139.622 22.164C140.294 22.836 141.218 23.172 142.394 23.172C143.384 23.172 144.28 23.0787 145.082 22.892C145.885 22.6867 146.716 22.3787 147.574 21.968V25.188C146.828 25.5613 146.034 25.832 145.194 26C144.373 26.1867 143.374 26.28 142.198 26.28C140.668 26.28 139.314 26 138.138 25.44C136.962 24.8613 136.038 23.9933 135.366 22.836C134.694 21.6787 134.358 20.2227 134.358 18.468C134.358 16.676 134.657 15.192 135.254 14.016C135.87 12.8213 136.72 11.9253 137.802 11.328C138.885 10.7307 140.145 10.432 141.582 10.432ZM141.61 13.4C140.808 13.4 140.136 13.6613 139.594 14.184C139.072 14.7067 138.764 15.5187 138.67 16.62H144.522C144.522 16.004 144.41 15.4533 144.186 14.968C143.981 14.4827 143.664 14.1 143.234 13.82C142.805 13.54 142.264 13.4 141.61 13.4ZM160.637 10.432C162.355 10.432 163.745 11.104 164.809 12.448C165.873 13.7733 166.405 15.7333 166.405 18.328C166.405 20.064 166.153 21.5293 165.649 22.724C165.145 23.9 164.455 24.7867 163.577 25.384C162.7 25.9813 161.683 26.28 160.525 26.28C159.797 26.28 159.163 26.1867 158.621 26C158.099 25.8133 157.651 25.5707 157.277 25.272C156.904 24.9733 156.577 24.656 156.297 24.32H156.073C156.148 24.6747 156.204 25.048 156.241 25.44C156.279 25.8133 156.297 26.1867 156.297 26.56V32.72H152.125V10.712H155.513L156.101 12.7H156.297C156.577 12.2893 156.913 11.916 157.305 11.58C157.697 11.2253 158.164 10.9453 158.705 10.74C159.265 10.5347 159.909 10.432 160.637 10.432ZM159.293 13.764C158.565 13.764 157.987 13.9133 157.557 14.212C157.128 14.5107 156.811 14.968 156.605 15.584C156.419 16.1813 156.316 16.9373 156.297 17.852V18.3C156.297 19.2893 156.391 20.1293 156.577 20.82C156.764 21.492 157.081 22.0053 157.529 22.36C157.977 22.7147 158.584 22.892 159.349 22.892C159.984 22.892 160.507 22.7147 160.917 22.36C161.328 22.0053 161.636 21.4827 161.841 20.792C162.047 20.1013 162.149 19.2613 162.149 18.272C162.149 16.7787 161.916 15.6587 161.449 14.912C161.001 14.1467 160.283 13.764 159.293 13.764ZM176.416 10.404C178.469 10.404 180.037 10.852 181.12 11.748C182.221 12.6253 182.772 13.9787 182.772 15.808V26H179.86L179.048 23.928H178.936C178.507 24.4693 178.059 24.9173 177.592 25.272C177.144 25.6267 176.621 25.8787 176.024 26.028C175.445 26.196 174.727 26.28 173.868 26.28C172.972 26.28 172.16 26.112 171.432 25.776C170.723 25.4213 170.163 24.8893 169.752 24.18C169.341 23.452 169.136 22.5373 169.136 21.436C169.136 19.812 169.705 18.6173 170.844 17.852C171.983 17.068 173.691 16.6387 175.968 16.564L178.628 16.48V15.808C178.628 15.0053 178.413 14.4173 177.984 14.044C177.573 13.6707 176.995 13.484 176.248 13.484C175.501 13.484 174.773 13.596 174.064 13.82C173.355 14.0253 172.645 14.2867 171.936 14.604L170.564 11.776C171.385 11.3467 172.291 11.0107 173.28 10.768C174.288 10.5253 175.333 10.404 176.416 10.404ZM177.004 18.972C175.66 19.0093 174.727 19.252 174.204 19.7C173.681 20.148 173.42 20.736 173.42 21.464C173.42 22.0987 173.607 22.556 173.98 22.836C174.353 23.0973 174.839 23.228 175.436 23.228C176.332 23.228 177.088 22.9667 177.704 22.444C178.32 21.9027 178.628 21.1467 178.628 20.176V18.916L177.004 18.972Z" fill="#373737"/>
<path opacity="0.7" d="M66.254 43.39C65.57 43.39 64.952 43.51 64.4 43.75C63.848 43.978 63.38 44.32 62.996 44.776C62.612 45.22 62.318 45.766 62.114 46.414C61.91 47.05 61.808 47.77 61.808 48.574C61.808 49.63 61.97 50.548 62.294 51.328C62.63 52.108 63.122 52.708 63.77 53.128C64.43 53.548 65.252 53.758 66.236 53.758C66.8 53.758 67.334 53.71 67.838 53.614C68.342 53.518 68.834 53.398 69.314 53.254V54.658C68.834 54.838 68.336 54.97 67.82 55.054C67.316 55.138 66.71 55.18 66.002 55.18C64.694 55.18 63.602 54.91 62.726 54.37C61.85 53.83 61.19 53.062 60.746 52.066C60.314 51.07 60.098 49.9 60.098 48.556C60.098 47.584 60.23 46.696 60.494 45.892C60.77 45.088 61.166 44.392 61.682 43.804C62.21 43.216 62.858 42.766 63.626 42.454C64.394 42.13 65.276 41.968 66.272 41.968C66.932 41.968 67.568 42.034 68.18 42.166C68.792 42.298 69.338 42.484 69.818 42.724L69.17 44.092C68.774 43.912 68.33 43.75 67.838 43.606C67.358 43.462 66.83 43.39 66.254 43.39ZM79.961 47.782C79.961 48.382 79.781 48.85 79.421 49.186C79.061 49.522 78.599 49.75 78.035 49.87V49.942C78.635 50.026 79.157 50.242 79.601 50.59C80.045 50.926 80.267 51.454 80.267 52.174C80.267 52.582 80.189 52.96 80.033 53.308C79.889 53.656 79.661 53.956 79.349 54.208C79.037 54.46 78.635 54.658 78.143 54.802C77.651 54.934 77.057 55 76.361 55H72.203V45.352H76.343C77.027 45.352 77.639 45.43 78.179 45.586C78.731 45.73 79.163 45.982 79.475 46.342C79.799 46.69 79.961 47.17 79.961 47.782ZM78.629 52.174C78.629 51.622 78.419 51.226 77.999 50.986C77.579 50.746 76.961 50.626 76.145 50.626H73.787V53.722H76.181C76.973 53.722 77.579 53.608 77.999 53.38C78.419 53.14 78.629 52.738 78.629 52.174ZM78.359 47.98C78.359 47.524 78.191 47.194 77.855 46.99C77.531 46.774 76.997 46.666 76.253 46.666H73.787V49.312H75.965C76.745 49.312 77.339 49.204 77.747 48.988C78.155 48.772 78.359 48.436 78.359 47.98ZM91.2621 50.158C91.2621 50.962 91.1541 51.676 90.9381 52.3C90.7341 52.912 90.4341 53.434 90.0381 53.866C89.6541 54.298 89.1801 54.628 88.6161 54.856C88.0641 55.072 87.4461 55.18 86.7621 55.18C86.1261 55.18 85.5381 55.072 84.9981 54.856C84.4581 54.628 83.9901 54.298 83.5941 53.866C83.1981 53.434 82.8861 52.912 82.6581 52.3C82.4421 51.676 82.3341 50.962 82.3341 50.158C82.3341 49.09 82.5141 48.19 82.8741 47.458C83.2341 46.714 83.7501 46.15 84.4221 45.766C85.0941 45.37 85.8921 45.172 86.8161 45.172C87.6921 45.172 88.4601 45.37 89.1201 45.766C89.7921 46.15 90.3141 46.714 90.6861 47.458C91.0701 48.19 91.2621 49.09 91.2621 50.158ZM83.9721 50.158C83.9721 50.914 84.0681 51.574 84.2601 52.138C84.4641 52.69 84.7761 53.116 85.1961 53.416C85.6161 53.716 86.1501 53.866 86.7981 53.866C87.4461 53.866 87.9801 53.716 88.4001 53.416C88.8201 53.116 89.1261 52.69 89.3181 52.138C89.5221 51.574 89.6241 50.914 89.6241 50.158C89.6241 49.39 89.5221 48.736 89.3181 48.196C89.1141 47.656 88.8021 47.242 88.3821 46.954C87.9741 46.654 87.4401 46.504 86.7801 46.504C85.7961 46.504 85.0821 46.828 84.6381 47.476C84.1941 48.124 83.9721 49.018 83.9721 50.158ZM97.7986 45.172C98.6266 45.172 99.3346 45.352 99.9226 45.712C100.523 46.072 100.979 46.582 101.291 47.242C101.615 47.89 101.777 48.652 101.777 49.528V50.482H95.1706C95.1946 51.574 95.4706 52.408 95.9986 52.984C96.5386 53.548 97.2886 53.83 98.2486 53.83C98.8606 53.83 99.4006 53.776 99.8686 53.668C100.349 53.548 100.841 53.38 101.345 53.164V54.55C100.853 54.766 100.367 54.922 99.8866 55.018C99.4066 55.126 98.8366 55.18 98.1766 55.18C97.2646 55.18 96.4546 54.994 95.7466 54.622C95.0506 54.25 94.5046 53.698 94.1086 52.966C93.7246 52.222 93.5326 51.316 93.5326 50.248C93.5326 49.192 93.7066 48.286 94.0546 47.53C94.4146 46.774 94.9126 46.192 95.5486 45.784C96.1966 45.376 96.9466 45.172 97.7986 45.172ZM97.7806 46.468C97.0246 46.468 96.4246 46.714 95.9806 47.206C95.5486 47.686 95.2906 48.358 95.2066 49.222H100.121C100.121 48.67 100.037 48.19 99.8686 47.782C99.7006 47.374 99.4426 47.056 99.0946 46.828C98.7586 46.588 98.3206 46.468 97.7806 46.468ZM110.419 45.352V46.684H106.117V55H104.533V45.352H110.419ZM120.832 50.158C120.832 50.962 120.724 51.676 120.508 52.3C120.304 52.912 120.004 53.434 119.608 53.866C119.224 54.298 118.75 54.628 118.186 54.856C117.634 55.072 117.016 55.18 116.332 55.18C115.696 55.18 115.108 55.072 114.568 54.856C114.028 54.628 113.56 54.298 113.164 53.866C112.768 53.434 112.456 52.912 112.228 52.3C112.012 51.676 111.904 50.962 111.904 50.158C111.904 49.09 112.084 48.19 112.444 47.458C112.804 46.714 113.32 46.15 113.992 45.766C114.664 45.37 115.462 45.172 116.386 45.172C117.262 45.172 118.03 45.37 118.69 45.766C119.362 46.15 119.884 46.714 120.256 47.458C120.64 48.19 120.832 49.09 120.832 50.158ZM113.542 50.158C113.542 50.914 113.638 51.574 113.83 52.138C114.034 52.69 114.346 53.116 114.766 53.416C115.186 53.716 115.72 53.866 116.368 53.866C117.016 53.866 117.55 53.716 117.97 53.416C118.39 53.116 118.696 52.69 118.888 52.138C119.092 51.574 119.194 50.914 119.194 50.158C119.194 49.39 119.092 48.736 118.888 48.196C118.684 47.656 118.372 47.242 117.952 46.954C117.544 46.654 117.01 46.504 116.35 46.504C115.366 46.504 114.652 46.828 114.208 47.476C113.764 48.124 113.542 49.018 113.542 50.158ZM135.782 45.352V53.668H137.186V58.348H135.656V55H128.942V58.348H127.43V53.668H128.204C128.756 52.9 129.212 52.066 129.572 51.166C129.944 50.254 130.22 49.306 130.4 48.322C130.592 47.326 130.694 46.336 130.706 45.352H135.782ZM132.11 46.594C132.062 47.41 131.936 48.256 131.732 49.132C131.528 49.996 131.264 50.824 130.94 51.616C130.628 52.408 130.262 53.092 129.842 53.668H134.252V46.594H132.11ZM143.103 45.172C143.931 45.172 144.639 45.352 145.227 45.712C145.827 46.072 146.283 46.582 146.595 47.242C146.919 47.89 147.081 48.652 147.081 49.528V50.482H140.475C140.499 51.574 140.775 52.408 141.303 52.984C141.843 53.548 142.593 53.83 143.553 53.83C144.165 53.83 144.705 53.776 145.173 53.668C145.653 53.548 146.145 53.38 146.649 53.164V54.55C146.157 54.766 145.671 54.922 145.191 55.018C144.711 55.126 144.141 55.18 143.481 55.18C142.569 55.18 141.759 54.994 141.051 54.622C140.355 54.25 139.809 53.698 139.413 52.966C139.029 52.222 138.837 51.316 138.837 50.248C138.837 49.192 139.011 48.286 139.359 47.53C139.719 46.774 140.217 46.192 140.853 45.784C141.501 45.376 142.251 45.172 143.103 45.172ZM143.085 46.468C142.329 46.468 141.729 46.714 141.285 47.206C140.853 47.686 140.595 48.358 140.511 49.222H145.425C145.425 48.67 145.341 48.19 145.173 47.782C145.005 47.374 144.747 47.056 144.399 46.828C144.063 46.588 143.625 46.468 143.085 46.468ZM157.181 55H155.579V46.666H152.735C152.615 48.19 152.465 49.492 152.285 50.572C152.105 51.64 151.877 52.51 151.601 53.182C151.325 53.854 150.995 54.346 150.611 54.658C150.227 54.97 149.777 55.126 149.261 55.126C149.105 55.126 148.949 55.114 148.793 55.09C148.649 55.078 148.529 55.048 148.433 55V53.812C148.505 53.836 148.583 53.854 148.667 53.866C148.751 53.878 148.835 53.884 148.919 53.884C149.183 53.884 149.423 53.776 149.639 53.56C149.855 53.344 150.047 53.014 150.215 52.57C150.395 52.126 150.557 51.568 150.701 50.896C150.845 50.212 150.971 49.408 151.079 48.484C151.187 47.56 151.283 46.516 151.367 45.352H157.181V55ZM164.198 45.19C165.374 45.19 166.244 45.448 166.808 45.964C167.372 46.48 167.654 47.302 167.654 48.43V55H166.502L166.196 53.632H166.124C165.848 53.98 165.56 54.274 165.26 54.514C164.972 54.742 164.636 54.91 164.252 55.018C163.88 55.126 163.424 55.18 162.884 55.18C162.308 55.18 161.786 55.078 161.318 54.874C160.862 54.67 160.502 54.358 160.238 53.938C159.974 53.506 159.842 52.966 159.842 52.318C159.842 51.358 160.22 50.62 160.976 50.104C161.732 49.576 162.896 49.288 164.468 49.24L166.106 49.186V48.61C166.106 47.806 165.932 47.248 165.584 46.936C165.236 46.624 164.744 46.468 164.108 46.468C163.604 46.468 163.124 46.546 162.668 46.702C162.212 46.846 161.786 47.014 161.39 47.206L160.904 46.018C161.324 45.79 161.822 45.598 162.398 45.442C162.974 45.274 163.574 45.19 164.198 45.19ZM164.666 50.338C163.466 50.386 162.632 50.578 162.164 50.914C161.708 51.25 161.48 51.724 161.48 52.336C161.48 52.876 161.642 53.272 161.966 53.524C162.302 53.776 162.728 53.902 163.244 53.902C164.06 53.902 164.738 53.68 165.278 53.236C165.818 52.78 166.088 52.084 166.088 51.148V50.284L164.666 50.338Z" fill="#2F2F2F"/>
<path d="M22.9888 3C24.6903 3 26.2309 3.945 27.0817 5.34C27.4956 6.015 27.7715 6.8475 27.7025 7.725C27.6565 8.4 27.8635 9.075 28.2314 9.705C29.4041 11.6175 32.0024 12.3375 34.0259 11.2575C36.3023 9.9525 39.1766 10.74 40.4872 12.9675L42.0278 15.6225C43.3615 17.85 42.6257 20.7075 40.3263 21.99C38.3718 23.1375 37.6819 25.68 38.8546 27.615C39.2226 28.2225 39.6364 28.74 40.2803 29.055C41.0851 29.4825 41.7059 30.1575 42.1428 30.8325C42.9936 32.2275 42.9246 33.9375 42.0968 35.445L40.4872 38.145C39.6364 39.585 38.0499 40.485 36.4173 40.485C35.6125 40.485 34.7157 40.26 33.9799 39.81C33.3821 39.4275 32.6922 39.2925 31.9564 39.2925C29.68 39.2925 27.7715 41.16 27.7025 43.3875C27.7025 45.975 25.5871 48 22.9428 48H19.8156C17.1483 48 15.0328 45.975 15.0328 43.3875C14.9868 41.16 13.0783 39.2925 10.8019 39.2925C10.0431 39.2925 9.35329 39.4275 8.77844 39.81C8.04263 40.26 7.12287 40.485 6.34107 40.485C4.6855 40.485 3.09891 39.585 2.24813 38.145L0.661545 35.445C-0.189235 33.9825 -0.235223 32.2275 0.615556 30.8325C0.983461 30.1575 1.67328 29.4825 2.45508 29.055C3.09891 28.74 3.51281 28.2225 3.9037 27.615C5.05341 25.68 4.36359 23.1375 2.40909 21.99C0.132682 20.7075 -0.603128 17.85 0.707533 15.6225L2.24813 12.9675C3.58179 10.74 6.43305 9.9525 8.73245 11.2575C10.7329 12.3375 13.3313 11.6175 14.504 9.705C14.8719 9.075 15.0788 8.4 15.0328 7.725C14.9868 6.8475 15.2398 6.015 15.6767 5.34C16.5274 3.945 18.068 3.045 19.7466 3H22.9888ZM21.4022 19.155C17.7921 19.155 14.8719 21.99 14.8719 25.5225C14.8719 29.055 17.7921 31.8675 21.4022 31.8675C25.0122 31.8675 27.8635 29.055 27.8635 25.5225C27.8635 21.99 25.0122 19.155 21.4022 19.155Z" fill="#FE7443"/>
</svg>
