<svg width="231" height="79" viewBox="0 0 231 79" fill="none" xmlns="http://www.w3.org/2000/svg">
<path d="M98.925 40H93.64V19.42H87.515C87.375 20.4933 87.2233 21.66 87.06 22.92C86.92 24.18 86.7567 25.4633 86.57 26.77C86.4067 28.0533 86.2317 29.2783 86.045 30.445C85.8583 31.5883 85.6717 32.6033 85.485 33.49C85.1817 34.9367 84.7733 36.1733 84.26 37.2C83.77 38.2267 83.0817 39.0083 82.195 39.545C81.3317 40.0817 80.2 40.35 78.8 40.35C78.3333 40.35 77.89 40.315 77.47 40.245C77.05 40.175 76.6533 40.0817 76.28 39.965V35.625C76.5833 35.7183 76.875 35.8 77.155 35.87C77.4583 35.94 77.785 35.975 78.135 35.975C78.6017 35.975 78.9867 35.8233 79.29 35.52C79.5933 35.2167 79.8617 34.7033 80.095 33.98C80.3283 33.2333 80.5617 32.2067 80.795 30.9C80.9117 30.34 81.0517 29.5467 81.215 28.52C81.3783 27.47 81.565 26.245 81.775 24.845C82.0083 23.4217 82.2417 21.8817 82.475 20.225C82.7083 18.545 82.93 16.8067 83.14 15.01H98.925V40ZM102.379 20.89H108.084L111.689 31.635C111.806 31.985 111.899 32.335 111.969 32.685C112.062 33.035 112.132 33.3967 112.179 33.77C112.249 34.1433 112.296 34.54 112.319 34.96H112.424C112.494 34.3533 112.587 33.7817 112.704 33.245C112.844 32.685 112.996 32.1483 113.159 31.635L116.694 20.89H122.294L114.209 42.45C113.719 43.7567 113.077 44.8533 112.284 45.74C111.514 46.6267 110.616 47.2917 109.589 47.735C108.562 48.1783 107.442 48.4 106.229 48.4C105.646 48.4 105.132 48.365 104.689 48.295C104.269 48.2483 103.896 48.19 103.569 48.12V43.99C103.826 44.0367 104.129 44.0833 104.479 44.13C104.852 44.1767 105.237 44.2 105.634 44.2C106.357 44.2 106.976 44.0483 107.489 43.745C108.026 43.4417 108.469 43.0217 108.819 42.485C109.169 41.9717 109.449 41.4117 109.659 40.805L109.974 39.86L102.379 20.89ZM129.921 27.89C129.921 28.7067 130.119 29.325 130.516 29.745C130.936 30.165 131.508 30.375 132.231 30.375C133.234 30.375 134.168 30.27 135.031 30.06C135.894 29.8267 136.758 29.5233 137.621 29.15V20.89H142.836V40H137.621V32.405C136.804 32.8483 135.871 33.2567 134.821 33.63C133.771 33.98 132.581 34.155 131.251 34.155C129.268 34.155 127.681 33.6417 126.491 32.615C125.301 31.5883 124.706 30.0483 124.706 27.995V20.89H129.921V27.89ZM177.06 20.89V40H148.605V20.89H153.82V36.08H160.225V20.89H165.44V36.08H171.845V20.89H177.06ZM187.851 28.45C187.851 28.8467 187.828 29.3367 187.781 29.92C187.758 30.5033 187.723 31.0983 187.676 31.705C187.653 32.3117 187.618 32.8483 187.571 33.315C187.524 33.7817 187.489 34.1083 187.466 34.295L196.286 20.89H202.551V40H197.511V32.37C197.511 31.74 197.534 31.0517 197.581 30.305C197.628 29.535 197.674 28.8233 197.721 28.17C197.791 27.4933 197.838 26.98 197.861 26.63L189.076 40H182.811V20.89H187.851V28.45ZM226.606 12.665C226.49 13.8783 226.151 14.9517 225.591 15.885C225.031 16.795 224.156 17.5067 222.966 18.02C221.776 18.5333 220.178 18.79 218.171 18.79C216.118 18.79 214.508 18.545 213.341 18.055C212.198 17.5417 211.381 16.83 210.891 15.92C210.401 15.01 210.11 13.925 210.016 12.665H214.671C214.788 13.9483 215.115 14.8 215.651 15.22C216.188 15.64 217.063 15.85 218.276 15.85C219.28 15.85 220.096 15.6283 220.726 15.185C221.38 14.7183 221.765 13.8783 221.881 12.665H226.606ZM213.341 28.45C213.341 28.8467 213.318 29.3367 213.271 29.92C213.248 30.5033 213.213 31.0983 213.166 31.705C213.143 32.3117 213.108 32.8483 213.061 33.315C213.015 33.7817 212.98 34.1083 212.956 34.295L221.776 20.89H228.041V40H223.001V32.37C223.001 31.74 223.025 31.0517 223.071 30.305C223.118 29.535 223.165 28.8233 223.211 28.17C223.281 27.4933 223.328 26.98 223.351 26.63L214.566 40H208.301V20.89H213.341V28.45Z" fill="#373737"/>
<path opacity="0.7" d="M85.448 64.68C84.84 64.68 84.2907 64.7867 83.8 65C83.3093 65.2027 82.8933 65.5067 82.552 65.912C82.2107 66.3067 81.9493 66.792 81.768 67.368C81.5867 67.9333 81.496 68.5733 81.496 69.288C81.496 70.2267 81.64 71.0427 81.928 71.736C82.2267 72.4293 82.664 72.9627 83.24 73.336C83.8267 73.7093 84.5573 73.896 85.432 73.896C85.9333 73.896 86.408 73.8533 86.856 73.768C87.304 73.6827 87.7413 73.576 88.168 73.448V74.696C87.7413 74.856 87.2987 74.9733 86.84 75.048C86.392 75.1227 85.8533 75.16 85.224 75.16C84.0613 75.16 83.0907 74.92 82.312 74.44C81.5333 73.96 80.9467 73.2773 80.552 72.392C80.168 71.5067 79.976 70.4667 79.976 69.272C79.976 68.408 80.0933 67.6187 80.328 66.904C80.5733 66.1893 80.9253 65.5707 81.384 65.048C81.8533 64.5253 82.4293 64.1253 83.112 63.848C83.7947 63.56 84.5787 63.416 85.464 63.416C86.0507 63.416 86.616 63.4747 87.16 63.592C87.704 63.7093 88.1893 63.8747 88.616 64.088L88.04 65.304C87.688 65.144 87.2933 65 86.856 64.872C86.4293 64.744 85.96 64.68 85.448 64.68ZM94.0814 66.264C94.8174 66.264 95.4467 66.424 95.9694 66.744C96.5027 67.064 96.908 67.5173 97.1854 68.104C97.4734 68.68 97.6174 69.3573 97.6174 70.136V70.984H91.7454C91.7667 71.9547 92.012 72.696 92.4814 73.208C92.9614 73.7093 93.628 73.96 94.4814 73.96C95.0254 73.96 95.5054 73.912 95.9214 73.816C96.348 73.7093 96.7854 73.56 97.2334 73.368V74.6C96.796 74.792 96.364 74.9307 95.9374 75.016C95.5107 75.112 95.004 75.16 94.4174 75.16C93.6067 75.16 92.8867 74.9947 92.2574 74.664C91.6387 74.3333 91.1534 73.8427 90.8014 73.192C90.46 72.5307 90.2894 71.7253 90.2894 70.776C90.2894 69.8373 90.444 69.032 90.7534 68.36C91.0734 67.688 91.516 67.1707 92.0814 66.808C92.6574 66.4453 93.324 66.264 94.0814 66.264ZM94.0654 67.416C93.3934 67.416 92.86 67.6347 92.4654 68.072C92.0814 68.4987 91.852 69.096 91.7774 69.864H96.1454C96.1454 69.3733 96.0707 68.9467 95.9214 68.584C95.772 68.2213 95.5427 67.9387 95.2334 67.736C94.9347 67.5227 94.5454 67.416 94.0654 67.416ZM104.181 66.264C105.237 66.264 106.085 66.632 106.725 67.368C107.375 68.104 107.701 69.2133 107.701 70.696C107.701 71.6667 107.551 72.488 107.253 73.16C106.965 73.8213 106.554 74.3227 106.021 74.664C105.498 74.9947 104.879 75.16 104.165 75.16C103.727 75.16 103.338 75.1013 102.997 74.984C102.655 74.8667 102.362 74.7173 102.117 74.536C101.882 74.344 101.679 74.136 101.509 73.912H101.413C101.434 74.0933 101.455 74.3227 101.477 74.6C101.498 74.8773 101.509 75.1173 101.509 75.32V78.84H100.101V66.424H101.253L101.445 67.592H101.509C101.679 67.3467 101.882 67.1227 102.117 66.92C102.362 66.7173 102.65 66.5573 102.981 66.44C103.322 66.3227 103.722 66.264 104.181 66.264ZM103.925 67.448C103.349 67.448 102.885 67.56 102.533 67.784C102.181 67.9973 101.925 68.3227 101.765 68.76C101.605 69.1973 101.519 69.752 101.509 70.424V70.696C101.509 71.4 101.583 71.9973 101.733 72.488C101.882 72.9787 102.133 73.352 102.485 73.608C102.847 73.864 103.338 73.992 103.957 73.992C104.479 73.992 104.906 73.848 105.237 73.56C105.578 73.272 105.829 72.8827 105.989 72.392C106.159 71.8907 106.245 71.32 106.245 70.68C106.245 69.6987 106.053 68.9147 105.669 68.328C105.295 67.7413 104.714 67.448 103.925 67.448ZM117.14 68.584C117.14 69.1173 116.98 69.5333 116.66 69.832C116.34 70.1307 115.93 70.3333 115.428 70.44V70.504C115.962 70.5787 116.426 70.7707 116.82 71.08C117.215 71.3787 117.412 71.848 117.412 72.488C117.412 72.8507 117.343 73.1867 117.204 73.496C117.076 73.8053 116.874 74.072 116.596 74.296C116.319 74.52 115.962 74.696 115.524 74.824C115.087 74.9413 114.559 75 113.94 75H110.244V66.424H113.924C114.532 66.424 115.076 66.4933 115.556 66.632C116.047 66.76 116.431 66.984 116.708 67.304C116.996 67.6133 117.14 68.04 117.14 68.584ZM115.956 72.488C115.956 71.9973 115.77 71.6453 115.396 71.432C115.023 71.2187 114.474 71.112 113.748 71.112H111.652V73.864H113.78C114.484 73.864 115.023 73.7627 115.396 73.56C115.77 73.3467 115.956 72.9893 115.956 72.488ZM115.716 68.76C115.716 68.3547 115.567 68.0613 115.268 67.88C114.98 67.688 114.506 67.592 113.844 67.592H111.652V69.944H113.588C114.282 69.944 114.81 69.848 115.172 69.656C115.535 69.464 115.716 69.1653 115.716 68.76ZM121.091 71.656C121.091 71.752 121.086 71.8907 121.075 72.072C121.075 72.2427 121.07 72.4293 121.059 72.632C121.048 72.824 121.038 73.0107 121.027 73.192C121.016 73.3627 121.006 73.5013 120.995 73.608L125.587 66.424H127.315V75H126.003V69.944C126.003 69.7733 126.003 69.5493 126.003 69.272C126.014 68.9947 126.024 68.7227 126.035 68.456C126.046 68.1787 126.056 67.9707 126.067 67.832L121.507 75H119.763V66.424H121.091V71.656ZM133.784 75.16C133.027 75.16 132.35 75.0053 131.752 74.696C131.166 74.3867 130.702 73.9067 130.36 73.256C130.03 72.6053 129.864 71.7733 129.864 70.76C129.864 69.704 130.04 68.8453 130.392 68.184C130.744 67.5227 131.219 67.0373 131.816 66.728C132.424 66.4187 133.112 66.264 133.88 66.264C134.318 66.264 134.739 66.312 135.144 66.408C135.55 66.4933 135.88 66.6 136.136 66.728L135.704 67.896C135.448 67.8 135.15 67.7093 134.808 67.624C134.467 67.5387 134.147 67.496 133.848 67.496C133.272 67.496 132.798 67.6187 132.424 67.864C132.051 68.1093 131.774 68.472 131.592 68.952C131.411 69.432 131.32 70.0293 131.32 70.744C131.32 71.4267 131.411 72.008 131.592 72.488C131.774 72.968 132.046 73.3307 132.408 73.576C132.771 73.8213 133.224 73.944 133.768 73.944C134.238 73.944 134.648 73.896 135 73.8C135.363 73.704 135.694 73.5867 135.992 73.448V74.696C135.704 74.8453 135.384 74.9573 135.032 75.032C134.691 75.1173 134.275 75.16 133.784 75.16ZM141.444 66.424H142.948L144.804 71.304C144.911 71.592 145.007 71.8693 145.092 72.136C145.188 72.4027 145.273 72.664 145.348 72.92C145.423 73.1653 145.481 73.4053 145.524 73.64H145.588C145.652 73.3733 145.753 73.0267 145.892 72.6C146.031 72.1627 146.175 71.7253 146.324 71.288L148.068 66.424H149.588L145.892 76.184C145.689 76.7173 145.449 77.1813 145.172 77.576C144.905 77.9813 144.575 78.2907 144.18 78.504C143.796 78.728 143.327 78.84 142.772 78.84C142.516 78.84 142.292 78.824 142.1 78.792C141.908 78.7707 141.743 78.744 141.604 78.712V77.592C141.721 77.6133 141.86 77.6347 142.02 77.656C142.191 77.6773 142.367 77.688 142.548 77.688C142.879 77.688 143.161 77.624 143.396 77.496C143.641 77.3787 143.849 77.2027 144.02 76.968C144.191 76.744 144.335 76.4773 144.452 76.168L144.9 75.032L141.444 66.424ZM154.684 75.16C153.927 75.16 153.25 75.0053 152.652 74.696C152.066 74.3867 151.602 73.9067 151.26 73.256C150.93 72.6053 150.764 71.7733 150.764 70.76C150.764 69.704 150.94 68.8453 151.292 68.184C151.644 67.5227 152.119 67.0373 152.716 66.728C153.324 66.4187 154.012 66.264 154.78 66.264C155.218 66.264 155.639 66.312 156.044 66.408C156.45 66.4933 156.78 66.6 157.036 66.728L156.604 67.896C156.348 67.8 156.05 67.7093 155.708 67.624C155.367 67.5387 155.047 67.496 154.748 67.496C154.172 67.496 153.698 67.6187 153.324 67.864C152.951 68.1093 152.674 68.472 152.492 68.952C152.311 69.432 152.22 70.0293 152.22 70.744C152.22 71.4267 152.311 72.008 152.492 72.488C152.674 72.968 152.946 73.3307 153.308 73.576C153.671 73.8213 154.124 73.944 154.668 73.944C155.138 73.944 155.548 73.896 155.9 73.8C156.263 73.704 156.594 73.5867 156.892 73.448V74.696C156.604 74.8453 156.284 74.9573 155.932 75.032C155.591 75.1173 155.175 75.16 154.684 75.16ZM165.76 75H164.336V67.592H161.808C161.701 68.9467 161.568 70.104 161.408 71.064C161.248 72.0133 161.045 72.7867 160.8 73.384C160.555 73.9813 160.261 74.4187 159.92 74.696C159.579 74.9733 159.179 75.112 158.72 75.112C158.581 75.112 158.443 75.1013 158.304 75.08C158.176 75.0693 158.069 75.0427 157.984 75V73.944C158.048 73.9653 158.117 73.9813 158.192 73.992C158.267 74.0027 158.341 74.008 158.416 74.008C158.651 74.008 158.864 73.912 159.056 73.72C159.248 73.528 159.419 73.2347 159.568 72.84C159.728 72.4453 159.872 71.9493 160 71.352C160.128 70.744 160.24 70.0293 160.336 69.208C160.432 68.3867 160.517 67.4587 160.592 66.424H165.76V75ZM167.438 66.424H168.942L170.798 71.304C170.905 71.592 171.001 71.8693 171.086 72.136C171.182 72.4027 171.267 72.664 171.342 72.92C171.417 73.1653 171.475 73.4053 171.518 73.64H171.582C171.646 73.3733 171.747 73.0267 171.886 72.6C172.025 72.1627 172.169 71.7253 172.318 71.288L174.062 66.424H175.582L171.886 76.184C171.683 76.7173 171.443 77.1813 171.166 77.576C170.899 77.9813 170.569 78.2907 170.174 78.504C169.79 78.728 169.321 78.84 168.766 78.84C168.51 78.84 168.286 78.824 168.094 78.792C167.902 78.7707 167.737 78.744 167.598 78.712V77.592C167.715 77.6133 167.854 77.6347 168.014 77.656C168.185 77.6773 168.361 77.688 168.542 77.688C168.873 77.688 169.155 77.624 169.39 77.496C169.635 77.3787 169.843 77.2027 170.014 76.968C170.185 76.744 170.329 76.4773 170.446 76.168L170.894 75.032L167.438 66.424ZM182.47 66.424V67.608H178.646V75H177.238V66.424H182.47Z" fill="#2F2F2F"/>
<path d="M40.3494 9.34082C40.2294 10.0908 40.1694 10.8408 40.1694 11.5908C40.1694 18.3407 45.6293 23.7976 52.3492 23.7976C53.0992 23.7976 53.8192 23.7106 54.5692 23.5906V47.7972C54.5692 57.9701 48.5693 64 38.3694 64H16.2028C5.99991 64 0 57.9701 0 47.7972V25.6006C0 15.4007 5.99991 9.34082 16.2028 9.34082H40.3494ZM40.9524 27.5805C40.1394 27.4905 39.3324 27.8505 38.8494 28.5105L31.5925 37.9004L23.2797 31.3605C22.7697 30.9705 22.1697 30.8175 21.5697 30.8805C20.9727 30.9705 20.4327 31.2975 20.0697 31.7775L11.1928 43.3303L11.0098 43.6003C10.4998 44.5573 10.7398 45.7873 11.6398 46.4503C12.0598 46.7203 12.5098 46.9003 13.0198 46.9003C13.7128 46.9303 14.3698 46.5673 14.7898 46.0003L22.3197 36.3074L30.8695 42.7303L31.1395 42.9073C32.0995 43.4173 33.2995 43.1803 33.9895 42.2773L42.6594 31.0905L42.5394 31.1505C43.0194 30.4905 43.1094 29.6505 42.7794 28.9005C42.4524 28.1505 41.7294 27.6405 40.9524 27.5805ZM52.7695 4C56.7594 4 59.9994 7.23995 59.9994 11.2299C59.9994 15.2198 56.7594 18.4598 52.7695 18.4598C48.7796 18.4598 45.5396 15.2198 45.5396 11.2299C45.5396 7.23995 48.7796 4 52.7695 4Z" fill="#FE7443"/>
</svg>
